<svg xmlns="http://www.w3.org/2000/svg" viewBox="-365 -134 1830 1830" role="img" aria-label="PALMS symbol">
<g transform="translate(-0.023863,1535.879708) scale(0.100000,-0.100000)"><path d="M6915 15349 c-22 -4 -85 -13 -140 -19 -99 -11 -175 -22 -287 -40
-177 -30 -189 -32 -308 -59 -150 -33 -302 -69 -345 -82 -16 -5 -64 -18 -105
-30 -100 -29 -374 -120 -480 -159 -47 -18 -106 -40 -133 -49 -26 -10 -50 -21
-54 -24 -3 -4 -12 -7 -20 -7 -7 0 -35 -10 -61 -21 -26 -12 -60 -27 -77 -34
-30 -13 -74 -32 -170 -75 -193 -86 -567 -280 -790 -410 -275 -160 -617 -390
-865 -582 -41 -32 -115 -89 -165 -127 -88 -68 -365 -302 -455 -385 -298 -273
-606 -580 -779 -775 -95 -106 -267 -311 -311 -371 -14 -18 -54 -70 -90 -115
-36 -46 -84 -109 -107 -141 -23 -33 -67 -95 -99 -139 -54 -75 -216 -324 -254
-390 -161 -278 -215 -376 -284 -515 -44 -91 -90 -186 -100 -210 -11 -25 -29
-67 -42 -95 -56 -125 -125 -307 -190 -505 -57 -175 -58 -179 -84 -285 -54
-226 -73 -328 -90 -480 -6 -55 -15 -125 -20 -156 -13 -71 -13 -523 -1 -563 6
-17 15 -69 22 -116 12 -93 50 -244 81 -330 11 -30 22 -64 26 -75 9 -31 81
-171 125 -244 92 -151 270 -357 520 -603 205 -202 411 -306 725 -368 117 -23
364 -9 512 29 313 79 694 323 899 575 141 173 227 323 318 554 11 27 -25 9
-67 -33 -24 -24 -46 -43 -48 -41 -2 3 15 32 38 66 42 61 132 244 143 288 3 13
1 22 -6 22 -7 0 -61 -43 -122 -96 -171 -150 -255 -217 -425 -338 -252 -180
-601 -360 -810 -417 -19 -6 -51 -14 -70 -20 -203 -56 -429 -49 -550 17 -148
81 -234 228 -286 489 -20 97 -23 427 -5 550 25 174 40 264 63 365 34 157 32
150 79 315 40 141 100 323 139 420 4 11 18 47 30 80 12 33 26 68 31 77 5 10 9
22 9 28 0 5 14 39 30 75 17 36 30 68 30 70 0 17 158 340 265 540 130 243 345
584 509 805 128 173 292 375 413 509 12 13 48 54 80 91 62 72 491 502 608 610
375 347 866 724 1245 957 209 128 255 156 350 210 172 98 465 251 590 307 36
16 97 44 135 61 72 33 133 60 173 76 12 5 32 13 45 18 12 5 43 18 69 30 26 12
54 21 61 21 8 0 17 3 20 7 25 24 533 184 777 243 148 36 367 79 515 99 507 72
974 65 1353 -20 109 -24 145 -34 257 -71 313 -103 575 -281 754 -513 35 -45
141 -211 141 -220 0 -2 13 -26 28 -52 29 -50 99 -216 112 -268 5 -16 15 -55
23 -85 87 -333 95 -707 26 -1115 -41 -236 -121 -522 -201 -715 -13 -30 -28
-67 -39 -97 -17 -45 -27 -69 -48 -115 -12 -26 -21 -50 -21 -54 0 -9 -146 -303
-186 -374 -20 -36 -53 -96 -74 -135 -20 -38 -52 -95 -70 -125 -18 -30 -41 -68
-50 -85 -116 -201 -471 -709 -607 -867 -21 -24 -58 -68 -83 -98 -303 -363
-683 -758 -969 -1010 -41 -36 -95 -83 -120 -106 -85 -75 -365 -300 -466 -374
-277 -203 -326 -239 -460 -326 -66 -44 -158 -102 -205 -130 -47 -29 -116 -71
-154 -94 -38 -23 -88 -52 -110 -65 -23 -12 -66 -36 -96 -52 -30 -17 -91 -50
-135 -75 -147 -81 -469 -237 -575 -278 -30 -12 -71 -28 -90 -37 -19 -8 -46
-20 -60 -25 -14 -6 -33 -14 -42 -19 -23 -11 -33 7 -20 34 5 12 17 38 25 57 8
19 27 61 41 93 14 32 26 60 26 62 0 2 11 28 24 57 13 29 38 87 56 128 57 132
101 230 154 342 19 40 43 93 54 118 70 158 102 230 146 322 18 40 45 98 59
128 13 30 54 116 89 190 36 74 81 169 100 210 20 41 53 111 73 155 179 381
543 1109 767 1535 30 58 90 173 133 255 73 141 104 199 161 303 13 23 36 63
50 90 15 26 34 61 44 77 10 17 31 55 47 85 88 161 109 199 135 243 15 26 28
50 28 52 0 2 32 58 70 125 39 67 70 123 70 125 0 2 14 28 31 57 18 29 40 68
50 86 37 63 57 98 109 187 29 50 62 106 72 125 11 19 29 47 39 62 11 14 19 28
19 31 0 3 14 28 31 56 l32 51 -21 49 c-31 75 -115 193 -192 270 -261 261 -663
365 -910 236 -36 -19 -69 -58 -137 -160 -56 -84 -82 -125 -216 -340 -48 -78
-393 -650 -427 -710 -10 -16 -59 -102 -110 -190 -51 -88 -102 -176 -113 -195
-11 -19 -31 -55 -45 -80 -14 -25 -42 -74 -62 -110 -21 -36 -53 -94 -72 -130
-40 -75 -83 -152 -108 -195 -10 -16 -29 -51 -44 -77 -14 -27 -37 -67 -50 -90
-13 -24 -48 -90 -78 -148 -31 -58 -84 -159 -118 -225 -35 -66 -92 -174 -127
-240 -155 -296 -635 -1271 -763 -1550 -16 -34 -46 -100 -68 -146 -70 -148
-122 -261 -122 -264 0 -2 -18 -43 -41 -92 -22 -48 -46 -101 -54 -118 -32 -72
-56 -128 -76 -172 -12 -27 -29 -66 -39 -88 -35 -80 -63 -141 -86 -193 -13 -29
-24 -55 -24 -57 0 -2 -13 -34 -30 -70 -16 -36 -30 -68 -30 -70 0 -2 -13 -34
-30 -70 -16 -36 -30 -68 -30 -70 0 -2 -13 -34 -30 -70 -16 -36 -30 -68 -30
-70 0 -3 -9 -25 -20 -50 -11 -25 -29 -65 -40 -90 -11 -25 -20 -49 -20 -54 0
-5 -7 -14 -15 -21 -11 -9 -26 -7 -72 15 -82 37 -158 99 -209 171 -44 62 -104
181 -104 208 0 7 -7 19 -15 26 -20 17 -37 2 -67 -58 -21 -42 -23 -60 -22 -174
1 -154 15 -218 77 -348 24 -50 53 -87 129 -160 100 -97 108 -113 89 -162 -45
-113 -237 -605 -253 -648 -11 -30 -24 -64 -28 -75 -18 -45 -45 -116 -80 -215
-21 -58 -52 -143 -70 -190 -45 -123 -70 -192 -80 -220 -5 -14 -36 -104 -70
-200 -76 -220 -214 -633 -269 -810 -24 -74 -46 -146 -51 -160 -4 -14 -18 -59
-30 -100 -12 -41 -25 -86 -30 -100 -4 -14 -13 -43 -19 -65 -6 -22 -24 -89 -41
-150 -17 -60 -35 -128 -41 -150 -6 -22 -15 -51 -19 -65 -8 -24 -102 -404 -120
-485 -5 -22 -13 -60 -19 -85 -10 -41 -36 -174 -60 -305 -6 -27 -15 -90 -21
-140 -6 -49 -16 -121 -21 -160 -17 -116 -22 -440 -10 -575 36 -409 126 -654
306 -835 90 -90 141 -119 263 -151 6 -2 12 -10 12 -19 0 -27 71 -123 108 -147
69 -44 82 -48 161 -48 112 0 187 35 213 100 6 14 12 108 13 210 1 102 6 212
13 245 6 33 16 98 22 145 20 146 60 367 89 495 5 22 14 65 20 95 6 30 23 102
37 160 14 58 34 143 46 190 18 75 30 123 68 260 5 19 23 85 40 145 28 103 40
141 92 320 38 128 60 200 78 255 10 30 33 102 51 160 47 153 213 651 249 750
17 47 40 110 50 140 27 80 88 257 111 318 19 52 42 116 78 215 10 28 42 113
71 187 29 74 65 171 82 215 16 44 34 89 38 100 4 11 22 58 40 105 56 149 71
186 109 272 12 26 21 54 21 61 0 7 4 17 8 23 5 5 33 70 61 144 29 74 58 146
63 160 6 14 14 34 18 45 5 11 15 36 23 55 8 19 37 89 63 155 78 196 80 199
144 208 91 13 297 54 390 77 94 23 169 43 205 55 22 7 60 18 85 25 78 23 425
138 491 164 153 58 307 119 344 136 22 10 63 28 90 40 28 12 75 33 105 47 30
13 82 36 115 51 63 28 515 255 575 289 19 11 71 39 115 63 44 23 85 46 90 50
6 4 26 17 45 28 19 10 73 43 120 72 47 29 99 61 117 71 32 18 440 291 523 350
421 299 943 753 1270 1105 150 161 178 192 220 244 25 30 47 57 50 60 12 11
171 210 248 312 45 59 131 182 193 274 129 194 168 258 256 419 45 83 193 382
193 390 0 2 11 29 25 59 54 118 165 428 201 564 8 28 21 78 29 110 9 31 20 75
24 97 73 348 85 460 85 795 0 387 -23 563 -123 935 -15 53 -79 240 -101 291
-12 27 -29 67 -38 89 -25 59 -106 221 -147 295 -61 109 -315 446 -455 605
-131 149 -359 365 -515 489 -33 26 -67 53 -75 59 -190 151 -532 341 -782 435
-140 53 -169 63 -268 90 -226 64 -409 101 -595 122 -55 6 -125 15 -156 20 -66
12 -777 11 -834 -1z m-2920 -1338 c-6 -5 -80 -55 -165 -111 -305 -203 -492
-338 -725 -524 -339 -271 -465 -384 -790 -710 -205 -205 -599 -644 -664 -740
-8 -12 -17 -23 -21 -26 -3 -3 -21 -25 -40 -50 -19 -25 -37 -47 -40 -50 -3 -3
-33 -41 -66 -85 -205 -272 -364 -506 -464 -681 -10 -17 -37 -62 -60 -100 -67
-109 -77 -127 -188 -347 -57 -114 -107 -205 -110 -202 -3 3 -1 15 5 28 6 12
18 38 26 57 17 40 56 128 95 215 36 78 200 404 242 480 56 100 229 385 293
480 75 112 190 269 285 390 35 44 69 87 75 95 22 28 102 125 117 142 8 9 49
55 90 101 118 133 503 513 630 621 153 130 158 135 210 177 73 59 327 249 440
331 125 89 437 298 446 298 3 0 18 9 33 19 33 24 184 112 261 153 30 16 59 34
65 39 5 5 13 9 19 9 6 0 6 -3 1 -9z m-351 -949 c-17 -15 -44 -38 -60 -52 -258
-219 -289 -247 -464 -415 -240 -231 -373 -367 -530 -545 -41 -46 -81 -91 -88
-98 -201 -216 -606 -766 -819 -1112 -22 -36 -59 -96 -82 -134 -51 -81 -65
-107 -161 -281 -42 -76 -220 -431 -220 -439 0 -3 -11 -29 -24 -58 -14 -30 -34
-78 -46 -108 -12 -30 -27 -68 -35 -85 -7 -16 -23 -57 -35 -90 -12 -33 -26 -69
-30 -80 -60 -149 -176 -518 -211 -675 -6 -25 -15 -65 -20 -90 -6 -25 -13 -62
-16 -83 -3 -20 -10 -40 -15 -43 -7 -5 -8 5 -4 27 3 19 10 63 15 99 15 99 52
289 70 360 6 19 15 58 21 85 58 256 177 612 287 855 13 30 36 82 51 115 32 71
178 360 217 430 15 28 43 77 63 110 19 33 43 74 52 90 103 178 294 462 450
670 70 93 136 179 146 190 11 12 53 59 94 105 218 247 534 563 750 750 41 36
91 79 110 97 19 17 67 58 105 90 64 53 113 91 280 219 33 25 67 51 76 58 26
22 93 66 99 66 3 0 -9 -13 -26 -28z m3355 -1648 c-12 -22 -32 -58 -45 -81 -13
-24 -35 -63 -49 -88 -76 -136 -132 -239 -195 -359 -29 -55 -61 -116 -72 -135
-19 -34 -69 -128 -222 -421 -141 -270 -716 -1429 -806 -1626 -16 -34 -47 -101
-70 -149 -23 -48 -55 -116 -71 -151 -16 -35 -43 -94 -60 -131 -34 -74 -65
-143 -97 -213 -11 -25 -39 -85 -62 -135 -43 -92 -64 -140 -101 -222 -12 -27
-34 -75 -49 -108 -15 -33 -38 -82 -50 -110 -12 -27 -33 -74 -46 -102 -13 -29
-35 -77 -48 -105 -13 -29 -34 -75 -46 -103 -12 -27 -33 -74 -46 -103 -13 -29
-24 -55 -24 -57 0 -3 -16 -40 -36 -82 -20 -43 -43 -96 -52 -118 -48 -120 -53
-126 -128 -151 -38 -13 -75 -22 -81 -19 -13 4 -10 18 21 90 8 16 20 46 29 65
8 19 24 55 35 80 11 25 34 79 52 120 18 41 43 99 56 128 13 29 24 54 24 57 0
2 20 46 44 97 24 51 56 119 70 151 14 31 38 83 52 115 14 31 41 90 60 130 19
41 34 75 34 77 0 4 73 160 157 335 34 69 86 179 117 245 107 224 444 891 526
1040 15 28 57 106 92 175 36 69 77 146 92 173 50 91 73 132 95 170 45 79 59
105 106 192 26 50 59 109 72 133 92 167 164 293 183 322 9 14 30 50 47 80 44
81 67 120 112 195 23 37 41 69 41 72 0 2 14 24 30 48 17 24 30 46 30 50 0 4
14 26 30 50 17 24 30 46 30 50 0 3 18 33 40 65 22 32 40 62 40 65 0 4 14 26
30 50 17 24 30 46 30 49 0 11 93 146 97 142 2 -2 -6 -21 -18 -42z m2410 -1396
c-13 -24 -72 -117 -197 -308 -61 -95 -202 -291 -222 -310 -3 -3 -22 -26 -43
-52 -21 -26 -43 -53 -50 -60 -7 -8 -55 -61 -107 -118 -120 -133 -323 -339
-318 -323 3 12 32 48 156 192 40 47 110 133 155 191 45 58 90 114 100 125 17
18 127 162 425 558 95 126 134 166 101 105z m371 -584 c0 -11 -168 -260 -245
-363 -43 -56 -118 -149 -168 -205 -151 -171 -410 -419 -396 -378 2 6 24 32 48
59 179 194 244 268 318 363 53 68 160 198 262 319 84 101 90 109 131 163 32
43 50 58 50 42z m-461 -76 c-66 -97 -196 -255 -283 -343 -43 -44 -72 -71 -65
-60 8 11 16 22 19 25 3 3 21 25 40 50 19 25 40 52 47 60 121 152 149 186 153
190 3 3 25 30 50 60 25 30 50 60 55 67 6 7 14 12 18 13 4 0 -11 -28 -34 -62z
m-4957 -3428 c11 0 -37 -134 -92 -255 -10 -22 -32 -76 -50 -120 -17 -44 -38
-95 -46 -112 -8 -18 -20 -48 -28 -65 -8 -18 -29 -69 -46 -113 -17 -44 -38 -96
-47 -115 -31 -71 -201 -511 -255 -660 -11 -30 -24 -64 -28 -75 -4 -11 -22 -56
-38 -100 -17 -44 -42 -111 -57 -150 -15 -38 -33 -90 -41 -115 -8 -25 -19 -54
-24 -65 -5 -11 -20 -54 -34 -95 -34 -104 -76 -221 -86 -245 -13 -29 -222 -660
-260 -785 -17 -58 -40 -130 -50 -160 -9 -30 -27 -89 -39 -130 -13 -41 -26 -86
-31 -100 -4 -14 -13 -43 -19 -65 -6 -22 -20 -71 -31 -110 -12 -38 -25 -86 -30
-105 -5 -19 -19 -69 -30 -110 -11 -41 -25 -93 -31 -115 -29 -111 -49 -184 -57
-205 -11 -30 -14 23 -4 59 14 49 28 106 41 166 33 155 132 555 221 890 44 168
51 191 59 215 5 14 14 45 21 70 7 25 16 56 20 70 4 14 13 45 20 70 7 25 16 56
20 70 5 14 18 59 30 100 12 41 26 86 30 100 5 14 27 86 50 160 49 156 101 311
200 600 39 113 79 230 90 260 10 30 33 93 50 140 18 47 35 96 40 110 4 14 20
57 35 95 15 39 40 106 57 150 16 44 34 89 38 100 4 11 26 67 48 125 50 131
169 435 187 475 7 17 22 51 34 77 11 26 21 52 21 57 0 5 5 11 10 13 8 2 83 2
132 -2z" fill="currentColor" stroke="none"/></g>
</svg>